<svg xmlns="http://www.w3.org/2000/svg" xmlns:xlink="http://www.w3.org/1999/xlink" viewBox="2547 5882 1920 2739"><defs><style>.a{clip-path:url(#c);}.b,.c{stroke:#707070;}.b{fill:url(#a);}.c{fill:#fff;}.d{fill:#fffcfc;}</style><linearGradient id="a" y1="0.204" x2="1" y2="0.875" gradientUnits="objectBoundingBox"><stop offset="0" stop-color="#2794a1"/><stop offset="0.347" stop-color="#2eb1c1"/><stop offset="1" stop-color="#36cee1"/></linearGradient><clipPath id="c"><rect x="2547" y="5882" width="1920" height="2739"/></clipPath></defs><g id="b" class="a"><rect class="d" x="2547" y="5882" width="1920" height="2739"/><path class="b" d="M4509.791,3674.794c9-33.756-918.809,713.872-809.911,1067.013s943.775,856.956,948.961,937-163.916-1849.691-163.916-1849.691S4500.8,3708.55,4509.791,3674.794Z" transform="translate(0 2719)"/><g transform="translate(3790.355 6929)"><path class="c" d="M475.095,435.844c-3.157-.463-19.577-3.158-22.805-6.119-2.008-1.842-2.973,1.088-7.5-1.2-11.028-5.591-16.8-.655-29.415-7.977-4.727-2.745-2.639-.949-10.613-3.142-4.252-1.169-7.787-4.326-12.379-4.615-.463-.029-137.054-46.713-121.4-55.616,3.2-1.82,4.387-5.091,6.169-7.909,20.536-32.462,19.572-23.363,27.455-35.022.786-1.162,1.428-.7,1.95.246,1.234,2.234,3.349,3.871,3.946,6.543.5,2.226,2.74.82,3.617,1.709,1.772,1.8,4.11,2.936,5.478,5.181,1.273,2.089,3.16,0,2.732-1.03-1.01-2.441,3.291-5.883,1.963-9.959-.243-.745.792-3.862,1.466-3.857,2.4.016,1.463,16.385,7.01-.246,3.379,4.34,2.5-1.862,3.983-2.123,1.877-.33,4.065,7.644,4.886,9.422,1.709,3.7,5.236,1.717,4.836-1.108-.544-3.846,1.6-7.122,1.673-10.829,1.972.3,1.568,6.062,4.836,3.5,2.642-2.067,1.172,1.6,3.313,1.939,1.39-2.108,1.315-5.938,5.318-5.079.463.1,8.594-9.231,4.6-19.366-9.392-23.82-10.706-.251,22.733-34.7,16.652-17.156,23.159-16.132,26.01-31.642,15.419-83.9-15.971-106.779-24.267-136.873-1.022-3.706-5.711,1.754-2.952,6.663.642,1.143,1.675,1.43.965,2.934-2.067,4.371-9.423-4.817-12.127-5.544-2.625-.7-2.115,2.953-1.821,3.693,2.136,1.845,6.906,3.091,4.654,5.087-1.551,1.375-10.4-6.563-11.9-3.228-.7,1.544-.025,2.726,1.558,3.63,15.078,8.613,13.626,8.753,16.212,9.006,6.614.648,5.221,7.221,5.837,10.2,1.263,6.109-4.509,7.1-7.947,4.377-5.189-4.115-10.976-2.4-11.363-.964-.8,2.959,3.1.978,11.667,10.069,10.173,10.8,17.774,5.168,16.6,11.072-.542,2.718-2.005,20.194-1.982,21.66.138,8.549-5.843,37.128-6.34,43.723-.981,13.016-12.689,17.861-17.28,21.452-.906.709-18.162,13.332-18.132,11.556.035-2-1.71-3.554-1.26-5.407,1.43-5.9-3.261-15.419-.445-30.246a5.241,5.241,0,0,0,0-2.676c-4.376-11.3-.874-17.1-8.463-28.673-9.857-15.032-12.81-8.794-24.279-17.793a2.989,2.989,0,0,0-2.96-.629c-11.717,4.056-26.133,4.053-29.836,16.316-1.44,4.767-4.415,3.523-5.686,6.906-3.207,8.531-6.759,8.646-8.67,16.011-3.7,14.274-1.942,29.22-1.394,31.239a5.263,5.263,0,0,1-1.08,4.28c-1.679,2.233-1.722,5.817-5.034,6.749-.233.066-.272.889-.457,1.568-4.854-4.873-4.495-10.523-6.931-15.261-14.468-28.131-19.7-22.816-19.7-67.8.253-24.447,17.446-58.437,29.707-78.6,1.6-2.632,3.879-2.619,6.308-2.024,14.334,3.507,13.379.484,22.246.255,8.826-.229,4.606-6.191-.155-5.887-3.017.192-2.545-2.658-3.762-3.956-.578-.617,2.974-5.046,4.014-5.116,4.646-.313,17.961,5.16,21.967,3.709,7.774-2.814-9.578-5.317-10.445-8.328-.491-1.706,4.927-3.541,5.391-3.8,1.232-.688,1.731-1.765,2.74-2.722,1.85-1.756,4.431.063,5.582-2.9.909-2.347-1.959-3.442-4.3-2.007-.066.041-23.631,3.392-30.751,7.135-18.717,9.841-20.965,4.2-36.6,27.131-3.241,4.755-7.045-.8-8.755,5.6-2.58,9.66-8.455,10.734-14.378,21.834l-12.222,22.917c-4.22,9.662-6.46,5.684-8.422,17.1-.083.485,5.087,49.811,7,58.606,14.178,65.128,6.939,64.968,2.265,70.04-17.473,18.959.483,32.353-14.7,79.144-1.607,4.951-5.9,7.386-9.988,10.048-60.133,39.169,6.061-.507-139.573,57.7-17.1,6.835-19.715,3.81-18.131,11.921,4.248,21.744,12.362,46.448,25.4,64.566,35.266,49.021,21.471,24.268,40.949,12.6,6.85-4.1,8.018-9.6,13.486-6.95,7.608,3.686,17.38,1.267,24.581-2.414,11.365-5.811,9.215,3.406,23.582,3.865,5.058.162,19.186,3.678,33.022,4.085,9.372.276,9.549-4.943,13.269-7.416,10.29-6.841,10.732-11.9,15.122-11.949,13.761-.16,16.753-5.066,18.578-2.178,0,0,15.843,85.885,29.541,109.148,12.425,21.1,13.3,40.852,15.108,62,.041.485,4.41,55.655,4.194,65.561-.011.484-5.744,47.691-7.52,52.613-.885,2.451-2.7,4.389-3.617,6.81-.8,2.125-.693,4.258-2.068,6.233-1.248,1.793-3.032,2.9-3.988,4.836-2.589,5.24-3.632,13.759,1.452,17.918,9.122,7.461,21.24-.07,28.547-6.7,6.436-5.837,9.471-13.128,13.925-20.447a72.968,72.968,0,0,1,12.2-15.679c6.887-6.411,16.992-10.5,21.222-19.648,4.19-9.063-4.995-15-11.815-18.319-27.661-13.479,8.416-63.454-14.563-134.667-2.018-6.254-5.239-12.07-6.325-18.663-.711-4.314-1.294-8.665-2.932-12.726-3.65-9.046,3.649-32.642-2.513-55.39-2.048-7.56,17.682,2.847,19.422,3.058a136.823,136.823,0,0,0,31.311.1c53.151-7.166,49.475-30.606,63.515-16.383,8.8,8.918,12.924-1.007,17.35,2.91,1.256,1.112,1.91,3.625,4.072,3.106,7.415-1.78,28.456-21.133,29.329-52.059C479.354,439.33,478.642,436.364,475.095,435.844Z"/></g></g></svg>