<svg xmlns="http://www.w3.org/2000/svg" xmlns:xlink="http://www.w3.org/1999/xlink" viewBox="8848 6073 1920 2739"><defs><style>.a{clip-path:url(#c);}.b,.c{stroke:#707070;}.b{fill:url(#a);}.c{fill:#fff;}.d{fill:#fffcfc;}</style><linearGradient id="a" y1="0.204" x2="1" y2="0.875" gradientUnits="objectBoundingBox"><stop offset="0" stop-color="#2794a1"/><stop offset="0.347" stop-color="#2eb1c1"/><stop offset="1" stop-color="#36cee1"/></linearGradient><clipPath id="c"><rect x="8848" y="6073" width="1920" height="2739"/></clipPath></defs><g id="b" class="a"><rect class="d" x="8848" y="6073" width="1920" height="2739"/><path class="b" d="M4600.042,3316.064c4.777-18.37,59.416-51.609-171.989,190.6-251.623,263.381-467.827,936.437-518.208,1243.058,7.2,281.76,447.538,1082.156,690.2,1284.1,252.76,210.333,69.788,128.046,72.72,174.426,5.75,90.94-72.72-2357.974-72.72-2357.974S4590.069,3354.415,4600.042,3316.064Z" transform="translate(6241.796 2700.735)"/><path class="c" d="M527.324,461.12c-3.531-.493-21.9-3.362-25.511-6.513-2.247-1.961-3.326,1.158-8.385-1.282-12.337-5.951-18.8-.7-32.9-8.492-5.288-2.922-2.952-1.01-11.872-3.345-4.756-1.245-8.711-4.6-13.847-4.912-.518-.031-153.312-49.726-135.8-59.2,3.581-1.938,4.908-5.42,6.9-8.419,22.972-34.556,21.893-24.869,30.711-37.281.879-1.237,1.6-.743,2.181.262,1.38,2.378,3.747,4.121,4.414,6.965.556,2.37,3.065.872,4.046,1.82,1.982,1.912,4.6,3.125,6.128,5.515,1.424,2.223,3.535,0,3.056-1.1-1.13-2.6,3.681-6.262,2.2-10.6-.271-.793.886-4.111,1.64-4.106,2.687.017,1.637,17.442,7.841-.262,3.779,4.619,2.8-1.983,4.455-2.26,2.1-.352,4.547,8.137,5.466,10.03,1.912,3.942,5.857,1.828,5.41-1.179-.608-4.094,1.785-7.582,1.871-11.528,2.206.322,1.753,6.453,5.41,3.731,2.956-2.2,1.311,1.7,3.706,2.064,1.555-2.244,1.471-6.321,5.948-5.406.518.106,9.613-9.827,5.143-20.615-10.506-25.356-11.977-.267,25.429-36.941,18.627-18.262,25.906-17.172,29.1-33.683,17.248-89.309-17.866-113.666-27.146-145.7-1.143-3.945-6.388,1.867-3.3,7.093.719,1.217,1.874,1.522,1.079,3.123-2.312,4.653-10.541-5.128-13.565-5.9-2.937-.749-2.366,3.143-2.037,3.932,2.389,1.964,7.725,3.29,5.206,5.415-1.735,1.464-11.635-6.986-13.316-3.436-.777,1.643-.028,2.9,1.743,3.864,16.867,9.169,15.243,9.317,18.135,9.587,7.4.69,5.841,7.687,6.529,10.853,1.413,6.5-5.044,7.562-8.89,4.659-5.8-4.38-12.278-2.554-12.711-1.026-.891,3.15,3.471,1.041,13.051,10.719,11.379,11.494,19.882,5.5,18.566,11.786-.606,2.893-2.243,21.5-2.217,23.057.154,9.1-6.536,39.522-7.092,46.543-1.1,13.855-14.194,19.013-19.33,22.836-1.014.754-20.316,14.191-20.282,12.3.039-2.134-1.913-3.784-1.41-5.756,1.6-6.277-3.648-16.413-.5-32.2a5.317,5.317,0,0,0,0-2.848c-4.9-12.029-.978-18.2-9.467-30.522-11.026-16-14.33-9.361-27.16-18.941a3.472,3.472,0,0,0-3.311-.669c-13.107,4.317-29.233,4.315-33.376,17.368-1.611,5.075-4.938,3.75-6.361,7.352-3.587,9.081-7.561,9.2-9.7,17.044-4.143,15.195-2.173,31.1-1.559,33.254a5.4,5.4,0,0,1-1.209,4.556c-1.878,2.377-1.926,6.192-5.631,7.184-.261.07-.3.947-.511,1.669-5.429-5.187-5.028-11.2-7.753-16.246-16.184-29.945-22.033-24.287-22.033-72.177.283-26.024,19.515-62.206,33.231-83.667,1.79-2.8,4.339-2.787,7.056-2.155,16.035,3.733,14.966.515,24.884.271,9.873-.244,5.152-6.59-.173-6.267-3.375.2-2.847-2.829-4.208-4.211-.647-.657,3.327-5.371,4.491-5.446,5.2-.333,20.091,5.492,24.573,3.949,8.7-3-10.714-5.659-11.684-8.865-.549-1.816,5.511-3.769,6.03-4.045,1.378-.732,1.937-1.879,3.065-2.9,2.07-1.869,4.956.068,6.244-3.092,1.017-2.5-2.192-3.664-4.805-2.136-.074.043-26.434,3.611-34.4,7.6-20.938,10.476-23.452,4.467-40.937,28.881-3.625,5.062-7.881-.851-9.794,5.963-2.886,10.283-9.458,11.427-16.084,23.242l-13.672,24.4c-4.721,10.285-7.227,6.051-9.421,18.2-.093.516,5.691,53.024,7.832,62.385,15.86,69.329,7.762,69.157,2.534,74.557-19.545,20.182.541,34.44-16.449,84.248-1.8,5.27-6.6,7.863-11.173,10.7-67.266,41.7,6.78-.54-156.13,61.419-19.131,7.276-22.054,4.055-20.281,12.69,4.752,23.146,13.829,49.444,28.409,68.73,39.449,52.182,24.018,25.833,45.806,13.408,7.663-4.369,8.969-10.218,15.086-7.4,8.51,3.923,19.442,1.349,27.5-2.57,12.713-6.186,10.308,3.625,26.379,4.114,5.658.172,21.461,3.916,36.939,4.349,10.484.294,10.682-5.262,14.843-7.894,11.511-7.282,12.006-12.665,16.916-12.72,15.394-.171,18.741-5.392,20.782-2.318,0,0,17.722,91.424,33.046,116.187,13.9,22.461,14.88,43.487,16.9,66,.046.516,4.933,59.244,4.691,69.789-.012.515-6.425,50.766-8.413,56.006-.99,2.609-3.022,4.672-4.046,7.249-.9,2.262-.775,4.533-2.313,6.635-1.4,1.909-3.391,3.087-4.461,5.148-2.9,5.578-4.063,14.646,1.624,19.074,10.2,7.942,23.76-.075,31.933-7.129,7.2-6.213,10.595-13.974,15.577-21.766a78.328,78.328,0,0,1,13.643-16.69c7.7-6.824,19.008-11.177,23.739-20.915,4.687-9.648-5.587-15.962-13.217-19.5C345.647,762.307,386,709.109,360.3,633.3c-2.258-6.658-5.86-12.849-7.076-19.866-.8-4.592-1.448-9.224-3.28-13.546-4.083-9.63,4.082-34.747-2.811-58.962-2.291-8.048,19.78,3.03,21.726,3.255,9.822,1.134,24.02,1.515,35.025.1,59.456-7.629,55.344-32.58,71.049-17.439,9.847,9.493,14.457-1.072,19.408,3.1,1.406,1.184,2.137,3.858,4.555,3.306,8.294-1.895,31.832-22.5,32.808-55.416C532.089,464.831,531.292,461.674,527.324,461.12Z" transform="translate(10158.726 6987.096)"/></g></svg>